# xmcd
#
# Track frame offsets: 
#        150
#        13970
#        29517
#        44937
#        60737
#        80154
#        94097
#        115905
#        131750
#        141597
#        157800
#        181390
#
# Disc length: 2599 seconds
#
# Revision: 2
# Processed by: cddbd v1.5.2PL0 Copyright (c) Steve Scherf et al.
# Submitted via: ExactAudioCopy v0.99pb5
#
DISCID=b30a250c
DTITLE=Sonny Rhodes - Born To Be Blue
DYEAR=1997
DGENRE=Blues
TTITLE0=Born To Be Blue
TTITLE1=End Of My Hope
TTITLE2=Hide That Wine
TTITLE3=It's Not Funny Any More
TTITLE4=All Cried Out
TTITLE5=I'd Rather Be Hot Than Cool
TTITLE6=Five-Day Rain
TTITLE7=Can't Get Enough
TTITLE8=Satan
TTITLE9=She's My Woman
TTITLE10=Love Don't Get Old
TTITLE11=If I Had The Chance
EXTD=YEAR: 1997 ID3G: 0
EXTT0=
EXTT1=
EXTT2=
EXTT3=
EXTT4=
EXTT5=
EXTT6=
EXTT7=
EXTT8=
EXTT9=
EXTT10=
EXTT11=
PLAYORDER=
